<?xml version="1.0" encoding="UTF-8" standalone="no"?>
<svg width="32px" height="33px" viewBox="0 0 32 33" version="1.1" xmlns="http://www.w3.org/2000/svg" xmlns:xlink="http://www.w3.org/1999/xlink" xmlns:sketch="http://www.bohemiancoding.com/sketch/ns">
    <!-- Generator: Sketch 3.3.1 (12002) - http://www.bohemiancoding.com/sketch -->
    <title>icon-facebook</title>
    <desc>Created with Sketch.</desc>
    <defs></defs>
    <g id="Menu" stroke="none" stroke-width="1" fill="none" fill-rule="evenodd" sketch:type="MSPage">
        <g id="Desktop" sketch:type="MSArtboardGroup" transform="translate(-483.000000, -1101.000000)">
            <g id="Group-Copy" sketch:type="MSLayerGroup" transform="translate(0.000000, 854.000000)">
                <g id="We-are-in-Social" transform="translate(441.000000, 221.000000)" sketch:type="MSShapeGroup">
                    <g id="Social-Icons" transform="translate(0.000000, 26.120000)">
                        <g id="icon-facebook" transform="translate(41.331706, 0.500000)">
                            <path d="M27.36128,31.7109677 L6.22063484,31.7109677 C3.30190452,31.7109677 0.935473548,29.3445368 0.935473548,26.4258065 L0.935473548,5.28516129 C0.935473548,2.36643097 3.30190452,0 6.22063484,0 L27.36128,0 C30.2813316,0 32.6464413,2.36643097 32.6464413,5.28516129 L32.6464413,26.4258065 C32.6464413,29.3445368 30.2813316,31.7109677 27.36128,31.7109677" id="Fill-1" fill="#3D5A98"></path>
                            <path d="M22.8160413,31.7109677 L22.8160413,19.4308955 L26.9384671,19.4308955 L27.5555097,14.6451819 L22.8160413,14.6451819 L22.8160413,11.5890374 C22.8160413,10.2043252 23.2005368,9.25960258 25.1877574,9.25960258 L27.7219923,9.25828129 L27.7219923,4.97862194 C27.2833239,4.91916387 25.7796955,4.78967742 24.0289858,4.78967742 C20.3756181,4.78967742 17.8730942,7.02001548 17.8730942,11.1160155 L17.8730942,14.6451819 L13.7414194,14.6451819 L13.7414194,19.4308955 L17.8730942,19.4308955 L17.8730942,31.7109677 L22.8160413,31.7109677" id="Fill-2" fill="#FFFFFF"></path>
                        </g>
                    </g>
                </g>
            </g>
        </g>
    </g>
</svg>