<?xml version="1.0" encoding="utf-8"?>
<!-- Generator: Adobe Illustrator 18.0.0, SVG Export Plug-In . SVG Version: 6.00 Build 0)  -->
<!DOCTYPE svg PUBLIC "-//W3C//DTD SVG 1.1//EN" "http://www.w3.org/Graphics/SVG/1.1/DTD/svg11.dtd">
<svg version="1.1" id="Layer_1" xmlns="http://www.w3.org/2000/svg" xmlns:xlink="http://www.w3.org/1999/xlink" x="0px" y="0px"
	 viewBox="453.1 337.8 31 32" enable-background="new 453.1 337.8 31 32" xml:space="preserve">
<linearGradient id="SVGID_1_" gradientUnits="userSpaceOnUse" x1="455.2927" y1="367.2248" x2="482.3305" y2="339.9824">
	<stop  offset="0" style="stop-color:#FFB900"/>
	<stop  offset="0.3085" style="stop-color:#DD7F4A"/>
	<stop  offset="1" style="stop-color:#9100EB"/>
</linearGradient>
<path fill="url(#SVGID_1_)" d="M479.2,369.8h-21c-2.8,0-5-2.2-5-5v-22c0-2.8,2.2-5,5-5h21c2.8,0,5,2.2,5,5v22
	C484.2,367.5,481.9,369.8,479.2,369.8z"/>
<g>
	<g>
		<path fill="#FFFFFF" d="M473.9,366.3h-10.6c-3.5,0-6.3-3-6.3-6.8V348c0-3.7,2.8-6.8,6.3-6.8h10.6c3.5,0,6.3,3,6.3,6.8v11.5
			C480.2,363.3,477.4,366.3,473.9,366.3z M463.4,343.4c-2.4,0-4.3,2.1-4.3,4.7v11.5c0,2.6,1.9,4.7,4.3,4.7h10.6
			c2.4,0,4.3-2.1,4.3-4.7v-11.5c0-2.6-1.9-4.7-4.3-4.7H463.4z"/>
	</g>
	<g>
		<path fill="#FFFFFF" d="M468.6,360c-3.2,0-5.8-2.8-5.8-6.2s2.6-6.2,5.8-6.2c3.2,0,5.8,2.8,5.8,6.2S471.8,360,468.6,360z
			 M468.6,349.6c-2.1,0-3.9,1.9-3.9,4.2c0,2.3,1.7,4.2,3.9,4.2c2.2,0,3.9-1.9,3.9-4.2C472.5,351.5,470.7,349.6,468.6,349.6z"/>
	</g>
	<g>
		<ellipse fill="#FFFFFF" cx="474.8" cy="347.2" rx="1.3" ry="1.4"/>
	</g>
</g>
</svg>
