<?xml version="1.0" encoding="iso-8859-1"?>
<!-- Generator: Adobe Illustrator 19.0.0, SVG Export Plug-In . SVG Version: 6.00 Build 0)  -->
<svg xmlns="http://www.w3.org/2000/svg" xmlns:xlink="http://www.w3.org/1999/xlink" version="1.1" id="Layer_1" x="0px" y="0px" viewBox="0 0 512.001 512.001" style="enable-background:new 0 0 512.001 512.001;" xml:space="preserve" width="512px" height="512px">
<g>
	<g>
		<path d="M307.881,206.6c-59.993-59.993-92.411-72.044-113.862-80.019c-9.062-3.369-14.532-5.403-19.135-10.006    c-4.002-4.001-3.558-7.297-1.807-9.048c2.009-2.008,4.916-1.406,7.976,1.654c0.503,0.502,1.048,0.944,1.623,1.325    c10.583,9.729,24.227,15.058,38.691,15.058c15.286,0,29.657-5.953,40.467-16.763c22.313-22.313,22.313-58.621,0-80.935    c-23.222-23.222-57.383-32.376-96.197-25.78c-37.502,6.376-75.115,26.847-105.908,57.64    C28.934,90.522,8.464,128.134,2.089,165.637c-6.599,38.81,2.557,72.974,25.778,96.198c22.315,22.314,58.622,22.313,80.935,0    c22.157-22.158,22.311-58.114,0.465-80.466c-0.065-0.069-0.131-0.136-0.198-0.204c-3.06-3.06-3.663-5.967-1.653-7.976    c1.75-1.751,5.047-2.195,9.048,1.807c4.603,4.602,6.637,10.073,10.006,19.135c7.974,21.451,20.025,53.869,80.019,113.862    c2.03,2.031,4.692,3.046,7.352,3.046c2.661,0,5.323-1.015,7.352-3.043l86.689-86.689    C311.942,217.245,311.942,210.661,307.881,206.6z M213.895,285.882c-50.462-52.008-60.914-80.115-67.933-98.996    c-3.747-10.08-6.983-18.785-14.793-26.595c-6.453-6.453-13.738-9.141-20.531-9.141c-6.973,0-13.428,2.833-17.927,7.332    c-8.748,8.748-11.093,24.111,1.098,36.819c0.094,0.102,0.19,0.202,0.289,0.3c14.206,14.205,14.206,37.319,0,51.525    c-14.204,14.205-37.318,14.206-51.524,0c-18.323-18.324-25.421-46.028-19.984-78.007c5.66-33.289,24.071-66.917,51.844-94.689    c27.772-27.772,61.399-46.184,94.688-51.843c31.979-5.438,59.683,1.661,78.007,19.983c14.206,14.206,14.206,37.319,0,51.525    c-6.881,6.881-16.031,10.671-25.762,10.671s-18.881-3.79-25.762-10.671c-0.553-0.552-1.154-1.03-1.793-1.435    c-12.424-10.756-27.007-8.274-35.439,0.16c-8.884,8.884-11.269,25.381,1.807,38.459c7.811,7.811,16.515,11.046,26.595,14.793    c18.881,7.019,46.988,17.471,98.996,67.933L213.895,285.882z" fill="#eb1d00"/>
	</g>
</g>
<g>
	<g>
		<path d="M166.853,50.329c-1.957-5.4-7.92-8.19-13.319-6.234c-23.916,8.666-46.868,23.557-66.374,43.063    c-4.06,4.061-4.06,10.645,0,14.706c2.03,2.031,4.692,3.046,7.352,3.046s5.323-1.015,7.353-3.047    c17.366-17.366,37.682-30.581,58.754-38.216C166.018,61.691,168.809,55.729,166.853,50.329z" fill="#eb1d00"/>
	</g>
</g>
<g>
	<g>
		<path d="M200.948,45.477c-0.498-5.707-5.539-9.934-11.23-9.458c-5.695,0.437-9.978,5.389-9.578,11.096    c0.385,5.481,4.95,9.67,10.362,9.67c0.244,0,0.491-0.009,0.739-0.025c0.059-0.005,0.207-0.017,0.267-0.022    C197.226,56.237,201.446,51.196,200.948,45.477z" fill="#eb1d00"/>
	</g>
</g>
<g>
	<g>
		<path d="M510.222,363.771c-5.414-31.844-22.777-63.762-48.89-89.876c-26.115-26.113-58.033-43.476-89.877-48.89    c-33.151-5.637-62.371,2.22-82.274,22.122c-19.394,19.395-19.394,50.953,0,70.349c9.396,9.396,21.888,14.57,35.174,14.57    c13.093,0,25.414-5.024,34.76-14.16c0.063-0.06,0.127-0.123,0.19-0.185c1.181-1.181,2.356-1.866,3.222-1.879    c0.52-0.035,0.901,0.262,1.128,0.49c0.227,0.227,0.604,0.722,0.592,1.49c-0.018,1.083-0.767,2.42-2.111,3.762    c-4.192,4.193-12.414,8.781-22.824,14.589c-25.111,14.012-63.057,35.187-113.137,85.266c-1.95,1.95-3.046,4.595-3.046,7.352    s1.096,5.403,3.046,7.352l72.832,72.832c2.03,2.03,4.692,3.046,7.352,3.046s5.323-1.016,7.357-3.046    c50.078-50.079,71.253-88.027,85.265-113.137c5.809-10.409,10.397-18.631,14.588-22.822c2.089-2.088,4.101-2.669,5.252-1.519    c1.289,1.288-0.317,3.279-1.389,4.352c-0.469,0.469-0.885,0.974-1.248,1.507c-8.404,9.186-13.004,21.007-13.004,33.537    c0,13.286,5.174,25.779,14.57,35.174c19.396,19.395,50.953,19.396,70.349,0C508.002,426.142,515.857,396.924,510.222,363.771z     M473.391,431.342c-11.286,11.287-29.652,11.287-40.938,0c-5.467-5.467-8.479-12.736-8.479-20.469    c0-7.733,3.011-15.002,8.479-20.469c0.526-0.527,0.986-1.098,1.378-1.703c9.474-11.096,7.125-24.495-0.307-31.928    c-8.035-8.035-22.912-10.232-34.662,1.518c-6.238,6.237-11.189,15.111-18.044,27.394c-12.749,22.847-31.676,56.767-74.522,101.148    l-58-57.999c44.381-42.846,78.3-61.773,101.149-74.52c12.283-6.854,21.158-11.807,27.396-18.045    c11.75-11.749,9.552-26.627,1.518-34.661c-7.726-7.727-21.904-9.958-33.236,0.876c-0.102,0.094-0.203,0.19-0.302,0.289    c-11.286,11.286-29.652,11.286-40.938,0c-5.467-5.468-8.479-12.737-8.479-20.469s3.011-15.002,8.479-20.469    c15.002-15.003,37.76-20.8,64.083-16.326c27.632,4.698,55.565,20.002,78.656,43.093c23.092,23.092,38.396,51.026,43.093,78.656    C494.192,393.581,488.394,416.339,473.391,431.342z" fill="#eb1d00"/>
	</g>
</g>
<g>
</g>
<g>
</g>
<g>
</g>
<g>
</g>
<g>
</g>
<g>
</g>
<g>
</g>
<g>
</g>
<g>
</g>
<g>
</g>
<g>
</g>
<g>
</g>
<g>
</g>
<g>
</g>
<g>
</g>
</svg>
