<?xml version="1.0" encoding="UTF-8" standalone="no"?>
<svg
   xmlns:dc="http://purl.org/dc/elements/1.1/"
   xmlns:cc="http://creativecommons.org/ns#"
   xmlns:rdf="http://www.w3.org/1999/02/22-rdf-syntax-ns#"
   xmlns:svg="http://www.w3.org/2000/svg"
   xmlns="http://www.w3.org/2000/svg"
   xmlns:xlink="http://www.w3.org/1999/xlink"
   id="svg243"
   version="1.1"
   viewBox="0 0 15.17192 15.70467"
   height="15.70467mm"
   width="15.17192mm">
  <defs
     id="defs237" />
  <metadata
     id="metadata240">
    <rdf:RDF>
      <cc:Work
         rdf:about="">
        <dc:format>image/svg+xml</dc:format>
        <dc:type
           rdf:resource="http://purl.org/dc/dcmitype/StillImage" />
        <dc:title></dc:title>
      </cc:Work>
    </rdf:RDF>
  </metadata>
  <g
     transform="translate(-0.2098,-0.13782)"
     id="layer1">
    <g
       transform="translate(-109.37686,-170.32553)"
       clip-path="none"
       id="g3933">
      <g
         id="g3931">
        <path
           id="path34"
           style="display:inline;fill:#f26521;fill-opacity:1;fill-rule:nonzero;stroke:none;stroke-width:0.35277775"
           d="m 116.63975,170.46335 c 4.59211,0 8.11883,3.14572 8.11883,7.81403 0,4.69335 -3.52672,7.89022 -8.11883,7.89022 h -5.1502 c -1.03999,0 -1.90289,-0.68509 -1.90289,-1.87748 v -11.87344 c 0,-1.19239 0.8629,-1.95333 1.90289,-1.95333 z" />
        <path
           id="path38"
           style="display:inline;fill:#231f20;fill-opacity:1;fill-rule:nonzero;stroke:none;stroke-width:0.35277775"
           d="m 121.89991,176.6969 c -0.0145,0.1912 -0.25823,0.1905 -0.34113,0.0152 -0.31186,-0.54822 -0.73413,-0.62689 -1.39912,-0.67593 -0.49107,-0.0286 -1.08303,0.0131 -1.62243,0.036 -0.10054,0.005 -0.12594,-0.0646 -0.11359,-0.11078 0.10901,-0.45508 0.49883,-1.32997 0.90593,-1.39488 0.19368,-0.0335 0.62971,-0.0825 0.8883,-0.0818 1.13312,0.013 1.73531,1.29892 1.68204,2.21227 m -6.40009,4.43935 c 0.72531,0.20038 1.72755,0.30762 2.5594,0.24942 1.46156,-0.10231 2.5587,-0.64418 3.17641,-1.03858 -0.37112,0.9331 -1.76283,1.51306 -3.1122,1.6771 -0.009,0.0681 -0.019,0.13441 -0.031,0.19826 1.01212,-0.0536 1.97344,-0.381 2.40912,-0.6805 -0.24906,0.91792 -1.48731,1.28728 -2.61161,1.3402 -0.0317,0.072 -0.0649,0.14005 -0.0995,0.20461 0.65441,0.0116 1.28094,-0.10901 1.65488,-0.22648 -0.50694,0.96273 -2.74214,1.61889 -4.6108,0.73272 0.45438,-0.82691 0.62935,-1.67499 0.66534,-2.45675 m 6.17678,-6.5345 c -0.44626,-0.40711 -1.04104,-0.60184 -1.55998,-0.59514 -0.7493,0.006 -1.36172,0.19191 -2.25566,0.21132 -0.61983,0.0367 -1.18957,-1.31798 -1.92899,-1.49155 -0.32632,-0.72319 -1.05869,-0.80468 -1.50954,-0.44132 -0.40957,-0.24801 -1.05021,-0.1143 -1.07667,0.34396 -0.47096,-0.14535 -1.0795,0.10759 -0.81739,0.72425 -1.15217,0.0328 -1.36701,1.0474 -0.58526,1.16064 -1.00647,0.56726 -0.54645,1.54658 0.2981,1.33844 0.1591,1.46544 0.82374,3.3909 -0.27093,3.84915 -0.12877,0.0536 -0.61137,0.16969 -1.55364,-0.0501 -0.28187,-0.0656 -0.55986,-0.13794 -0.82973,-0.21378 v 0.75318 c 0.80539,0.20179 1.63054,0.34678 2.14454,0.29104 1.41957,-0.15275 1.49119,-1.33209 1.41746,-2.36467 -0.0709,-0.99836 -0.41804,-2.19216 -0.29563,-3.01061 l -0.037,-0.048 c -0.52917,0.54998 -0.87313,0.40428 -0.91052,0.22754 -0.0755,-0.35454 0.54363,-0.78811 0.89746,-0.9391 0.007,-0.0233 0.0159,-0.0473 0.0258,-0.072 -0.33091,0.0508 -0.72002,0.009 -0.73343,-0.22684 -0.0162,-0.27975 0.54787,-0.52952 1.28447,-0.46743 0.0141,-0.0116 0.0286,-0.0233 0.0427,-0.0353 -0.0466,-0.0183 -0.0959,-0.0413 -0.15804,-0.073 -0.1905,-0.0977 -0.23672,-0.26 -0.17463,-0.37783 0.0684,-0.12982 0.27693,-0.18027 0.44591,-0.17674 0.26494,0.006 0.49072,0.0695 0.65582,0.13617 0.0187,-0.008 0.037,-0.0159 0.055,-0.0226 -0.0614,-0.0473 -0.11465,-0.0991 -0.14534,-0.1524 -0.0459,-0.078 -0.0572,-0.18485 0.0314,-0.25435 0.10266,-0.0808 0.36442,-0.10971 0.60114,0.10407 0.0487,0.0441 0.09,0.0871 0.12735,0.12806 0.0265,-0.005 0.0529,-0.01 0.0794,-0.0141 -0.0388,-0.06 -0.0698,-0.12241 -0.0801,-0.18062 -0.0138,-0.0794 0.0123,-0.16475 0.10619,-0.19509 0.10231,-0.0332 0.23142,0.019 0.2988,0.11853 0.072,0.10619 0.11607,0.23707 0.14394,0.32985 -0.52141,0.0603 -1.13418,0.25718 -1.50425,0.75248 l -3.4e-4,3.4e-4 c 0,0 0,3.4e-4 0,3.4e-4 l -3.5e-4,3.5e-4 c -0.36653,0.49459 -0.52422,1.27882 -0.28433,2.00095 0.13581,0.76835 0.44838,1.48273 0.72143,2.19746 v -3.5e-4 c 3.4e-4,0.001 7.1e-4,0.002 10e-4,0.004 0.002,0.004 0.004,0.008 0.005,0.0127 l -7.2e-4,-3.4e-4 c 0.57961,1.69474 1.73143,5.85434 -3.76731,8.07578 0.27234,0.1323 0.57996,0.20885 0.91016,0.20885 h 0.56198 c 1.12289,-0.59725 1.90147,-1.2887 2.42711,-2.01401 2.5019,1.11019 4.80695,0.54151 5.7919,-1.27176 0.65617,-0.39229 1.09115,-1.19839 1.11866,-1.77483 0.40852,-0.51188 0.48401,-1.15817 0.35878,-1.59455 -0.03,-0.10372 -0.11501,-0.1069 -0.26176,-0.018 -2.04188,1.2192 -3.84211,1.41782 -5.99687,0.79728 -0.0564,-0.84384 -0.23037,-1.55151 -0.29528,-1.98014 -0.0582,-0.85337 0.23001,-1.27988 1.80869,-0.76376 1.02376,0.26423 1.49578,0.72954 1.86196,0.98848 0.1838,0.13018 0.38277,0.26917 0.52741,0.18274 0.0818,-0.049 0.10124,-0.19615 0.09,-0.37747 -0.0286,-0.47555 -0.23531,-1.26154 -0.4505,-1.53882 0.62724,-0.0353 1.12571,-0.0293 1.40582,0.002 0.5842,0.10125 0.62971,0.40852 0.71367,0.54046 0.18344,0.48965 1.13065,0.37288 1.2072,-0.0596 0.10513,-0.7553 0.17322,-1.90077 -0.68192,-2.68429 m -10.92553,7.37237 c -0.38594,-0.0194 -0.77647,-0.0162 -1.16417,0.004 v 0.508 c 0.6671,-0.14043 1.09467,-0.21451 1.09467,-0.21451 z" />
        <path
           id="path42"
           style="display:inline;fill:#ffffff;fill-opacity:1;fill-rule:nonzero;stroke:none;stroke-width:0.35277775"
           d="m 116.9128,176.60302 c -0.86713,-0.18979 -1.8161,-0.44026 -2.32234,-1.18145 -0.009,-0.0138 -0.0265,-0.0198 -0.0427,-0.0152 -0.0162,0.005 -0.0275,0.0191 -0.0282,0.0356 -0.002,0.0402 0.004,0.0847 0.0127,0.12877 l -0.0684,0.0258 c -0.13371,-0.18697 -0.16087,-0.41452 -0.0286,-0.57785 0.1905,-0.23495 0.57714,-0.21096 0.80786,-0.066 l -0.0293,0.0635 c -0.12418,-0.0208 -0.24165,-0.0208 -0.33408,0.0349 -0.078,0.0476 -0.0889,0.11783 -0.0406,0.20708 0.42016,0.77788 1.64183,0.94651 3.09421,0.83397 0.14958,-0.0113 0.18415,-0.0787 0.20391,-0.15064 0.12594,-0.50094 0.35454,-0.94756 0.69497,-1.28799 -0.26458,0.037 -0.51082,0.0452 -0.72566,0.0572 -0.75001,0.0473 -1.17898,-0.0512 -1.31269,-0.15734 l 0.0243,-0.0649 c 0.0797,0.0272 0.16263,0.0335 0.17992,0.0102 0.0233,-0.0318 0.005,-0.0512 -0.0314,-0.0833 -0.14217,-0.133 -0.78175,-0.78599 -0.78069,-0.78211 -0.0692,-0.55245 -0.87666,-0.57221 -1.19839,-0.0289 l -0.10936,-0.0293 c 0.0317,-0.11924 0.0794,-0.21625 0.12418,-0.28681 -0.67451,0.1517 -1.05798,0.75424 -1.12748,1.33668 -0.2988,2.50225 3.51225,1.92405 4.60163,2.92629 0.0205,0.0159 0.0723,0.0896 0.10972,0.043 0.042,-0.13653 -0.43815,-0.71932 -1.67358,-0.99131 m -1.33562,-3.00073 c 0.17957,-0.06 0.43674,0.11607 0.57432,0.39159 0.13759,0.27587 0.10372,0.54927 -0.0751,0.60819 -0.17744,0.0624 -0.43391,-0.1136 -0.5722,-0.39053 -0.0187,-0.0374 -0.0335,-0.0748 -0.0459,-0.11148 l 0.0314,-0.008 c 0.0572,0.0543 0.12594,0.0692 0.17181,0.0399 0.0628,-0.0413 0.0561,-0.15064 0.003,-0.24518 -0.0381,-0.0773 -0.12595,-0.1584 -0.19862,-0.1524 l -0.0127,-0.0162 c 0.0268,-0.055 0.0681,-0.0963 0.12383,-0.11536" />
        <path
           id="path46"
           style="display:inline;fill:#ffffff;fill-opacity:1;fill-rule:nonzero;stroke:none;stroke-width:0.35277775"
           d="m 121.23553,180.34698 c -0.61772,0.39476 -1.71486,0.93663 -3.17642,1.03893 -0.83149,0.0579 -1.83409,-0.049 -2.55905,-0.24976 -0.0113,0.24059 -0.0356,0.48789 -0.0773,0.73871 0.40887,0.10442 1.13453,0.24342 2.1844,0.27305 -0.0466,0.28117 -0.33303,1.24107 -1.0668,1.85808 1.33738,0.0557 2.54846,-0.46884 2.90477,-1.14547 -0.37359,0.11713 -1.00048,0.23813 -1.65488,0.22613 0.0349,-0.0642 0.0681,-0.13229 0.0998,-0.20461 1.12395,-0.0529 2.36185,-0.42192 2.61126,-1.33985 -0.43568,0.29916 -1.397,0.62689 -2.40911,0.68016 0.0123,-0.0639 0.0222,-0.13018 0.031,-0.19826 1.34937,-0.16404 2.74108,-0.74366 3.11221,-1.67711" />
      </g>
    </g>
    <use
       transform="translate(-109.37686,-170.32553)"
       x="0"
       y="0"
       xlink:href="#g3931"
       id="use3937"
       width="100%"
       height="100%" />
  </g>
</svg>
