<?xml version="1.0" encoding="UTF-8" standalone="no"?>
<svg width="33px" height="33px" viewBox="0 0 33 33" version="1.1" xmlns="http://www.w3.org/2000/svg" xmlns:xlink="http://www.w3.org/1999/xlink" xmlns:sketch="http://www.bohemiancoding.com/sketch/ns">
    <!-- Generator: Sketch 3.3.1 (12002) - http://www.bohemiancoding.com/sketch -->
    <title>icon-vk-ru</title>
    <desc>Created with Sketch.</desc>
    <defs></defs>
    <g id="Menu" stroke="none" stroke-width="1" fill="none" fill-rule="evenodd" sketch:type="MSPage">
        <g id="Desktop" sketch:type="MSArtboardGroup" transform="translate(-441.000000, -1101.000000)">
            <g id="Group-Copy" sketch:type="MSLayerGroup" transform="translate(0.000000, 854.000000)">
                <g id="We-are-in-Social" transform="translate(441.000000, 221.000000)" sketch:type="MSShapeGroup">
                    <g id="Social-Icons" transform="translate(0.000000, 26.120000)">
                        <g id="icon-vk-ru" transform="translate(0.331706, 0.000000)">
                            <path d="M27.0335077,0.313576216 L5.70017441,0.313576216 C2.75484108,0.313576216 0.366841081,2.70157622 0.366841081,5.64690955 L0.366841081,26.9802429 C0.366841081,29.9255762 2.75484108,32.3135762 5.70017441,32.3135762 L27.0335077,32.3135762 C29.9801744,32.3135762 32.3668411,29.9255762 32.3668411,26.9802429 L32.3668411,5.64690955 C32.3668411,2.70157622 29.9801744,0.313576216 27.0335077,0.313576216 L27.0335077,0.313576216 Z" fill="#4D75A3"></path>
                            <path d="M24.5788411,22.4882429 C24.2161744,23.2122429 23.7295077,23.8122429 23.1161744,24.2869095 C22.3921744,24.8549095 21.5961744,25.2602429 20.7295077,25.5029095 C19.8628411,25.7442429 18.7615077,25.8642429 17.4255077,25.8642429 L9.71484108,25.8642429 L9.71484108,6.60290955 L16.5201744,6.60290955 C17.9335077,6.60290955 19.0055077,6.65624288 19.7335077,6.76424288 C20.4628411,6.87224288 21.1455077,7.09890955 21.7841744,7.44424288 C22.4748411,7.81490955 22.9895077,8.31090955 23.3295077,8.93090955 C23.6708411,9.55224288 23.8415077,10.2682429 23.8415077,11.0789095 C23.8415077,12.0189095 23.6055077,12.8549095 23.1361744,13.5882429 C22.6655077,14.3215762 22.0175077,14.8602429 21.1895077,15.2055762 L21.1895077,15.3082429 C22.3788411,15.5589095 23.3321744,16.0695762 24.0481744,16.8415762 C24.7641744,17.6135762 25.1215077,18.6549095 25.1215077,19.9655762 C25.1215077,20.9229095 24.9401744,21.7642429 24.5788411,22.4882429 Z M16.8748411,14.1829095 C17.2068411,14.1655762 17.5495077,14.0749095 17.9041744,13.9122429 C18.2921744,13.7309095 18.5588411,13.4802429 18.7055077,13.1615762 C18.8521744,12.8429095 18.9255077,12.4709095 18.9255077,12.0482429 C18.9255077,11.7389095 18.8455077,11.4189095 18.6868411,11.0909095 C18.5268411,10.7642429 18.2788411,10.5269095 17.9428411,10.3802429 C17.6228411,10.2429095 17.2455077,10.1669095 16.8108411,10.1535762 C16.3748411,10.1402429 15.7255077,10.1349095 14.8641744,10.1349095 L14.5268411,10.1349095 L14.5268411,14.2095762 L15.1348411,14.2095762 C15.9628411,14.2095762 16.5428411,14.2002429 16.8748411,14.1829095 Z M18.6921744,17.7149095 C18.3988411,17.6029095 17.9961744,17.5402429 17.4828411,17.5269095 C16.9695077,17.5149095 16.2815077,17.5082429 15.4201744,17.5082429 L14.5268411,17.5082429 L14.5268411,22.3335762 L14.7855077,22.3335762 C16.0455077,22.3335762 16.9161744,22.3242429 17.3988411,22.3069095 C17.8815077,22.2895762 18.3735077,22.1735762 18.8735077,21.9575762 C19.3135077,21.7682429 19.6348411,21.4895762 19.8375077,21.1229095 C20.0401744,20.7575762 20.1415077,20.3402429 20.1415077,19.8749095 C20.1415077,19.2802429 20.0201744,18.8149095 19.7788411,18.4775762 C19.5375077,18.1415762 19.1761744,17.8869095 18.6921744,17.7149095 Z" id="Path" fill="#FFFFFF"></path>
                        </g>
                    </g>
                </g>
            </g>
        </g>
    </g>
</svg>