<svg width="174" height="40" viewBox="0 0 174 40" fill="none" xmlns="http://www.w3.org/2000/svg"><g clip-path="url(#clip0)" fill-rule="evenodd" clip-rule="evenodd"><path d="M2 5.52C2 3.441 3.43 2 5.434 2c2.084 0 3.515 1.442 3.515 3.52 0 1.95-1.43 3.392-3.515 3.392C3.43 8.912 2 7.47 2 5.519zm.736 7.08H8.13v24.721H2.736v-24.72zm36.706 0L29.346 37.323H23.54L13.445 12.6h5.886l3.311 8.48 3.802 10.474 3.883-10.474 3.31-8.48h5.805zM47.33 2c-2.003 0-3.434 1.484-3.434 3.52 0 1.95 1.472 3.392 3.434 3.392 2.084 0 3.515-1.442 3.515-3.393C50.845 3.442 49.415 2 47.33 2zm2.697 35.322V12.6h-5.395v24.72h5.395zM81.666 2.297v35.025h-4.823l-.041-3.308c-1.84 2.417-5.028 3.859-8.789 3.859-6.744 0-11.73-5.089-11.73-12.89 0-7.803 4.986-12.891 11.73-12.891 3.434 0 6.377 1.187 8.257 3.223V2.296h5.396zM76.27 24.982c0-4.622-2.984-7.802-7.276-7.802-4.291 0-7.275 3.223-7.275 7.802 0 4.58 2.984 7.802 7.275 7.802 4.292 0 7.276-3.222 7.276-7.802zm17.168 2.078h19.048c.776-9.244-3.843-14.968-12.222-14.968-7.358 0-12.344 5.173-12.344 12.848 0 7.887 5.068 13.06 12.916 13.06 4.088 0 7.889-1.611 10.26-4.283l-3.27-3.307c-1.472 1.526-4.169 2.544-6.867 2.544-4.21 0-7.072-2.29-7.521-5.894zm13.897-4.325H93.479c.695-3.689 3.147-5.767 6.908-5.767 3.964 0 6.58 2.248 6.948 5.767zm9.729 2.247c0-7.42 4.986-12.89 12.753-12.89 7.726 0 12.67 5.512 12.67 12.89 0 7.379-4.986 12.89-12.67 12.89-7.767 0-12.753-5.511-12.753-12.89zm20.028 0c0-4.282-2.861-7.802-7.275-7.802-4.496 0-7.317 3.52-7.317 7.802 0 4.283 2.861 7.802 7.317 7.802 4.414 0 7.275-3.519 7.275-7.802zM172 37.322V23.668c0-7.039-4.046-11.576-10.137-11.534-3.393 0-6.213 1.23-8.257 3.732l-.04-3.265h-4.824v24.72h5.354V24.305c0-4.156 2.739-7.166 6.704-7.166 3.638 0 5.804 2.502 5.804 6.87v13.314H172z" fill="#fff"/><path d="M10.131 10.6v28.721H.736v-28.72h2.81C1.435 9.87 0 7.922 0 5.519 0 4.011.527 2.611 1.538 1.58 2.55.547 3.938 0 5.434 0c1.515 0 2.923.533 3.955 1.569 1.032 1.034 1.56 2.441 1.56 3.95 0 2.424-1.45 4.355-3.587 5.082h2.77zM30.69 39.323h-8.491L10.468 10.6h10.23l3.816 9.775 1.95 5.372 1.993-5.378 3.814-9.77H42.42L30.69 39.321zm-.362-18.24 3.31-8.481h5.805L29.346 37.32H23.54L13.444 12.6h5.886l3.311 8.48 3.802 10.474 3.883-10.474zm21.7-10.483v28.72h-9.395V10.6h2.827c-2.095-.729-3.563-2.668-3.563-5.082C41.897 2.433 44.17 0 47.331 0c1.516 0 2.923.533 3.956 1.569 1.031 1.034 1.559 2.441 1.559 3.95 0 2.424-1.45 4.355-3.587 5.082h2.77zm31.638 28.72h-8.799l-.014-1.093c-1.983 1.08-4.34 1.645-6.84 1.645-3.896 0-7.37-1.481-9.859-4.158-2.482-2.669-3.872-6.402-3.872-10.733 0-4.33 1.39-8.063 3.872-10.733 2.489-2.676 5.963-4.157 9.86-4.157 2.262 0 4.403.457 6.256 1.34V.297h9.396v39.025zM76.27 15.316a9.072 9.072 0 0 0-2-1.616c-1.72-1.034-3.87-1.607-6.257-1.607-6.744 0-11.73 5.088-11.73 12.89 0 7.802 4.986 12.89 11.73 12.89 2.643 0 5.004-.711 6.812-1.974a8.81 8.81 0 0 0 1.977-1.884l.04 3.307h4.824V2.297H76.27v13.018zm38.055 13.745h-5.021l4.531 4.583-1.243 1.402C109.793 38.198 105.419 40 100.836 40c-4.374 0-8.145-1.451-10.825-4.168-2.677-2.714-4.091-6.514-4.091-10.892 0-4.276 1.395-8.01 3.971-10.689 2.582-2.684 6.208-4.16 10.373-4.16 4.664 0 8.537 1.613 11.095 4.756 2.528 3.106 3.537 7.417 3.12 12.38l-.154 1.833zm-7.976 0H96.305c.21.273.452.516.721.728.88.693 2.186 1.166 3.933 1.166 2.265 0 4.367-.865 5.39-1.894zm-12.36 0a6.915 6.915 0 0 1-.551-2h19.048c.776-9.244-3.843-14.968-12.222-14.968-7.358 0-12.344 5.173-12.344 12.848 0 7.887 5.068 13.06 12.916 13.06 3.331 0 6.472-1.07 8.803-2.911a11.407 11.407 0 0 0 1.457-1.372l-3.27-3.307a5.866 5.866 0 0 1-.191.188c-1.506 1.422-4.091 2.356-6.676 2.356-3.367 0-5.871-1.464-6.97-3.894zM174 39.322h-9.396V24.007c0-1.877-.466-3.077-1.061-3.777-.557-.655-1.413-1.092-2.743-1.092-1.451 0-2.587.538-3.373 1.385-.796.858-1.331 2.144-1.331 3.78v15.018h-9.354v-28.72h8.799l.013 1.062c1.864-1.026 3.995-1.528 6.302-1.529 3.575-.023 6.675 1.313 8.859 3.788 2.163 2.451 3.285 5.852 3.285 9.746v15.654zm-12.137-27.188c-2.405 0-4.523.618-6.28 1.87a10.182 10.182 0 0 0-1.977 1.862l-.04-3.265h-4.824v24.72h5.354V24.305c0-4.156 2.739-7.166 6.704-7.166 3.638 0 5.804 2.502 5.804 6.87v13.314H172V23.668c0-7.039-4.046-11.576-10.137-11.534zm-159.127.467H8.13v24.72H2.736v-24.72zm70.044 8.112c-.88-.941-2.156-1.533-3.786-1.533-1.62 0-2.9.597-3.783 1.546-.894.96-1.492 2.403-1.492 4.256 0 1.854.598 3.296 1.492 4.256.884.95 2.162 1.546 3.783 1.546 1.622 0 2.9-.596 3.784-1.546.893-.96 1.492-2.402 1.492-4.256 0-1.878-.6-3.317-1.49-4.269zm34.555 2.022a6.957 6.957 0 0 0-.503-2c-.997-2.348-3.295-3.767-6.445-3.767-3.016 0-5.19 1.336-6.291 3.767a8.769 8.769 0 0 0-.617 2h13.856zm-10.945-2h8.161a3.73 3.73 0 0 0-.626-.67c-.77-.646-1.933-1.097-3.538-1.097-1.505 0-2.576.41-3.32 1.033a3.997 3.997 0 0 0-.677.734zm22.7-6.37c2.629-2.722 6.355-4.273 10.727-4.273 4.36 0 8.066 1.567 10.677 4.295 2.601 2.718 3.993 6.457 3.993 10.595 0 4.144-1.405 7.882-4.01 10.597-2.615 2.725-6.319 4.294-10.66 4.294-4.377 0-8.101-1.565-10.729-4.29-2.618-2.717-4.024-6.457-4.024-10.6 0-4.163 1.404-7.905 4.026-10.618zm16.002 10.617c0-3.392-2.168-5.802-5.275-5.802-3.19 0-5.317 2.41-5.317 5.802 0 3.384 2.161 5.802 5.317 5.802 3.107 0 5.275-2.41 5.275-5.802zM5.434 2C3.43 2 2 3.442 2 5.52c0 1.95 1.43 3.392 3.434 3.392 2.084 0 3.515-1.442 3.515-3.393C8.949 3.442 7.519 2 5.434 2zm38.463 3.52c0-2.036 1.43-3.52 3.434-3.52 2.084 0 3.515 1.442 3.515 3.52 0 1.95-1.43 3.392-3.515 3.392-1.962 0-3.434-1.442-3.434-3.393zm6.132 31.802h-5.396V12.6h5.395v24.72zM68.993 17.18c4.292 0 7.276 3.18 7.276 7.802 0 4.58-2.984 7.802-7.276 7.802-4.291 0-7.275-3.222-7.275-7.802s2.984-7.802 7.275-7.802zm60.823-5.088c-7.767 0-12.753 5.47-12.753 12.89 0 7.379 4.986 12.89 12.753 12.89 7.684 0 12.67-5.511 12.67-12.89 0-7.378-4.944-12.89-12.67-12.89zm0 5.088c4.414 0 7.275 3.52 7.275 7.802 0 4.283-2.861 7.802-7.275 7.802-4.456 0-7.317-3.519-7.317-7.802 0-4.282 2.821-7.802 7.317-7.802z" fill="#000" fill-opacity=".15"/></g><defs><clipPath id="clip0"><path fill="#fff" d="M0 0h174v40H0z"/></clipPath></defs></svg>