<svg width="257" height="46" viewBox="0 0 257 46" fill="none" xmlns="http://www.w3.org/2000/svg">
<path d="M20.5743 0C33.9542 0 44.2341 9.19807 44.2341 22.8481C44.2341 36.4981 33.9493 46 20.5743 46H5.53832C2.51566 45.9855 0 43.9742 0 40.4532V5.72528C0 2.22837 2.51566 0 5.53832 0H20.5743Z" fill="#FF6900"/>
<path d="M35.9677 17.8898C35.8952 18.4638 35.2482 18.4638 34.9585 17.9622C34.0218 16.3801 32.8002 16.0956 30.8591 15.9509C29.4105 15.8785 27.6964 16.0232 26.1127 16.0232C26.0275 16.0327 25.9421 16.0081 25.8751 15.9547C25.8081 15.9014 25.765 15.8237 25.7553 15.7386C26.0451 14.3736 27.2039 11.88 28.4159 11.6436C28.9711 11.5665 30.2845 11.4362 31.004 11.4362C34.3115 11.4362 36.1125 15.2466 35.9677 17.9043V17.8898ZM17.2668 30.9273C19.7038 31.5741 22.2305 31.8169 24.7462 31.6459C28.0424 31.4237 31.2316 30.3861 34.0266 28.6265C32.945 31.3662 28.8456 33.0688 24.9586 33.4981C24.9586 33.7151 24.8862 33.855 24.8862 34.0721C27.8364 33.9274 30.6418 32.9241 31.9359 32.0607C31.2164 34.7184 27.6192 35.7988 24.3116 36.011C24.2296 36.2094 24.1328 36.4012 24.0219 36.585C25.6545 36.6087 27.2816 36.3909 28.8504 35.9387C27.3343 38.7459 20.8592 40.6848 15.3933 38.1188C16.5314 35.8873 17.1691 33.4348 17.262 30.9321L17.2668 30.9273ZM35.3207 11.798C34.7159 11.2262 34.0041 10.7794 33.226 10.483C32.448 10.1867 31.619 10.0468 30.7867 10.0712C28.6283 10.0712 26.8321 10.6452 24.1668 10.7176C22.3706 10.7899 20.7144 6.8589 18.556 6.33316C17.6241 4.23984 15.4513 3.95044 14.1717 5.03086C12.9501 4.31218 11.0766 4.67393 11.009 6.03893C9.64256 5.60966 7.84635 6.32833 8.6334 8.19496C5.25343 8.26731 4.67884 11.2867 6.90479 11.5713C3.95456 13.2257 5.32103 16.1004 7.76909 15.5216C8.20849 19.8336 10.1399 25.4239 6.97722 26.8033C6.61991 26.948 5.18101 27.2857 2.44323 26.6586C1.65136 26.4416 0.787049 26.2293 0 26.0123V28.2407C2.37081 28.8002 4.74161 29.2487 6.27708 29.104C10.4489 28.6748 10.6662 25.2454 10.4489 22.2067C10.2316 19.168 9.22248 15.811 9.57979 13.3656L9.43494 13.2209C7.92361 14.8126 6.91927 14.3736 6.75993 13.872C6.54265 12.8639 8.34369 11.5713 9.34802 11.142C9.34802 11.0697 9.42045 10.9973 9.42045 10.925C8.48372 11.0697 7.33453 10.925 7.2621 10.2786C7.18967 9.48761 8.84586 8.69658 11.0042 8.91363C11.0766 8.91363 11.0766 8.84128 11.1491 8.84128L10.7193 8.62423C10.1447 8.33483 9.99987 7.83321 10.2365 7.54863C10.3997 7.37317 10.6017 7.23819 10.8263 7.15446C11.051 7.07072 11.2921 7.04053 11.5305 7.0663C12.1971 7.07468 12.8547 7.22084 13.4619 7.49558C13.5344 7.49558 13.5344 7.42323 13.6068 7.42323C13.4471 7.29759 13.3028 7.15349 13.177 6.99395C13.0942 6.889 13.0529 6.75732 13.0609 6.62394C13.0689 6.49056 13.1257 6.36476 13.2205 6.27045C13.5027 6.13182 13.8213 6.08517 14.1315 6.13709C14.4416 6.18902 14.7276 6.33689 14.9491 6.55985L15.3064 6.91678C15.3457 6.92168 15.3857 6.91772 15.4233 6.9052C15.4609 6.89268 15.4952 6.87192 15.5237 6.84443C15.397 6.714 15.3201 6.54332 15.3064 6.3621C15.2853 6.30954 15.2748 6.25334 15.2755 6.19671C15.2762 6.14008 15.2881 6.08415 15.3105 6.03214C15.333 5.98013 15.3655 5.93308 15.4062 5.89368C15.447 5.85428 15.4951 5.82332 15.5478 5.80259H15.5961C15.7592 5.77419 15.9271 5.79266 16.0801 5.85585C16.2331 5.91904 16.365 6.02435 16.4604 6.15952C16.6478 6.4316 16.7957 6.72876 16.8998 7.04218C15.3885 7.18688 13.5923 7.76086 12.5107 9.27056C11.9316 10.1246 11.5531 11.0982 11.4035 12.1188C11.2538 13.1394 11.3369 14.1806 11.6464 15.1647C12.0761 17.393 12.9404 19.4767 13.7323 21.6327V21.7051C15.4513 26.6586 18.7733 38.8713 2.73294 45.3393C3.56471 45.7384 4.47111 45.9586 5.39346 45.9857H7.04964C9.83661 44.5822 12.271 42.5693 14.1717 40.0964C21.5111 43.328 28.1744 41.6784 31.0715 36.3583C31.9613 35.7917 32.7119 35.0322 33.2677 34.1363C33.8236 33.2404 34.1704 32.231 34.2825 31.1829C34.8097 30.5428 35.1816 29.7896 35.3692 28.9822C35.5568 28.1748 35.5551 27.335 35.3641 26.5284C35.2917 26.239 35.0068 26.239 34.5722 26.456C28.6042 30.0494 23.3507 30.6234 17.093 28.7568C16.9263 26.8001 16.6377 24.8558 16.2287 22.935C16.0838 20.4221 16.8757 19.1969 21.4821 20.7066C24.5048 21.4977 25.8712 22.8627 26.948 23.6006C27.4308 23.9576 28.0972 24.3917 28.4593 24.083C28.5798 23.9337 28.6678 23.7609 28.7177 23.5757C28.7676 23.3905 28.7782 23.1969 28.749 23.0074C28.6766 21.6424 28.0296 19.3416 27.455 18.4783C28.8204 18.4039 30.1889 18.4039 31.5544 18.4783C33.283 18.7677 33.423 19.6986 33.6403 20.0603C34.1232 21.5073 36.9479 21.1359 37.1651 19.9156C37.5949 17.4027 37.7397 14.0939 35.2965 11.798H35.3207ZM3.37997 33.3389C2.25446 33.2671 1.12551 33.2671 0 33.3389L0 34.8486C1.93141 34.4193 3.16268 34.2023 3.16268 34.2023L3.37997 33.3389Z" fill="black"/>
<path d="M21.3676 17.6053C18.8519 17.0313 16.0562 16.3126 14.6077 14.1566C14.6077 14.0842 14.5352 14.0842 14.4628 14.0842C14.4436 14.0842 14.4252 14.0919 14.4116 14.1054C14.398 14.119 14.3904 14.1374 14.3904 14.1566C14.3798 14.28 14.4049 14.4039 14.4628 14.5135L14.2455 14.5859C13.8882 14.0119 13.7627 13.3656 14.1731 12.8591C14.7477 12.1404 15.8293 12.2128 16.5487 12.6421L16.4763 12.8832C16.1392 12.7852 15.779 12.8021 15.4526 12.9315C15.4066 12.9545 15.3656 12.9864 15.3319 13.0253C15.2982 13.0642 15.2726 13.1094 15.2564 13.1583C15.2403 13.2071 15.2339 13.2587 15.2378 13.31C15.2416 13.3613 15.2556 13.4113 15.2788 13.4572L15.3078 13.5054C16.5294 15.8062 20.1363 16.3078 24.3709 15.9509C24.4369 15.9604 24.5041 15.9569 24.5687 15.9405C24.6332 15.9241 24.694 15.8951 24.7473 15.8552C24.8007 15.8154 24.8457 15.7654 24.8797 15.7081C24.9137 15.6509 24.9361 15.5875 24.9455 15.5216C25.262 14.0939 25.9575 12.7776 26.959 11.7112C26.2697 11.8238 25.5714 11.8723 24.8731 11.8559C22.7147 12.0006 21.4207 11.7112 21.0586 11.4266L21.131 11.2095C21.2051 11.2496 21.2881 11.2706 21.3724 11.2706C21.4567 11.2706 21.5397 11.2496 21.6138 11.2095C21.6187 11.1703 21.6148 11.1304 21.6023 11.0928C21.5897 11.0553 21.5689 11.021 21.5414 10.9925C21.1358 10.6115 19.2623 8.68212 19.2623 8.68212C19.0451 7.02772 16.6743 7.02772 15.7375 8.60977L15.4526 8.54225C15.5143 8.23394 15.6357 7.94065 15.81 7.67887C13.8785 8.10815 12.7149 9.90725 12.5024 11.5375C11.6381 18.869 22.7872 17.1422 25.9547 20.0893C26.0271 20.1616 26.172 20.3787 26.2444 20.234C26.3168 20.0893 24.9503 18.3673 21.3531 17.5763L21.3676 17.6053ZM17.4903 8.81235C17.9731 8.66765 18.7843 9.16928 19.1465 9.9603C19.5086 10.7513 19.4362 11.5424 18.9292 11.7546C18.4222 11.9668 17.6255 11.4362 17.2633 10.6115C17.1909 10.4668 17.1909 10.3944 17.1185 10.2545H17.1909C17.2502 10.3207 17.3267 10.3693 17.4119 10.3948C17.4971 10.4204 17.5877 10.4219 17.6738 10.3992C17.891 10.2545 17.8186 9.96995 17.6738 9.68055C17.629 9.5617 17.5511 9.45812 17.4492 9.38206C17.3474 9.306 17.226 9.26061 17.0992 9.25127L17.0267 9.17893C17.1316 9.02024 17.2811 8.89606 17.4565 8.822" fill="white"/>
<path d="M34.0225 28.5972C31.2275 30.3567 28.0383 31.3943 24.7421 31.6166C22.2271 31.748 19.7065 31.5058 17.2627 30.8979C17.2617 31.622 17.1889 32.3442 17.0454 33.0539C19.1449 33.5472 21.2915 33.8124 23.448 33.8449C23.3032 34.636 22.4389 37.5107 20.3529 39.3049C24.2158 39.4496 27.7599 37.9399 28.8415 35.9286C27.2792 36.4108 25.6473 36.6292 24.013 36.5749C24.0854 36.3579 24.2303 36.218 24.3027 36.001C27.6102 35.8563 31.2075 34.7807 31.9269 32.0507C30.6329 32.914 27.8275 33.9173 24.8773 34.062C24.8773 33.8449 24.9497 33.7051 24.9497 33.488C28.8125 33.0057 32.9361 31.332 34.0128 28.602" fill="white"/>
<path d="M247.611 22.7466C246.716 22.7558 245.823 22.6389 244.96 22.3993L247.553 16.6403L250.146 22.3993C249.322 22.6399 248.466 22.7569 247.606 22.7466H247.611ZM256.781 27.1262L250.726 13.9537C250.035 12.5067 249.113 11.8797 247.727 11.8797H247.495C246.047 11.8797 245.129 12.5115 244.439 13.9537L238.384 27.1455C237.809 28.4719 238.21 29.6247 239.422 30.0829C239.663 30.1973 239.925 30.2631 240.192 30.2766C240.458 30.29 240.725 30.2508 240.977 30.1612C241.228 30.0716 241.46 29.9334 241.658 29.7544C241.856 29.5755 242.017 29.3593 242.131 29.1182L242.189 28.9832L243.575 26.0892C244.911 26.5078 246.303 26.7225 247.703 26.7258C249.054 26.7549 250.4 26.5509 251.682 26.1229L253.01 29.0169C253.206 29.5182 253.593 29.9212 254.087 30.1374C254.58 30.3535 255.139 30.3652 255.641 30.1697L255.776 30.1118C256.872 29.6295 257.331 28.4429 256.742 27.1744L256.781 27.1262ZM234.941 25.9638H233.787V13.8476C233.802 13.2829 233.591 12.7357 233.202 12.326C232.812 11.9164 232.276 11.6778 231.711 11.6626H231.556C231.267 11.6509 230.978 11.6995 230.709 11.8054C230.439 11.9113 230.194 12.0722 229.99 12.2777C229.786 12.4833 229.628 12.7291 229.524 12.9993C229.42 13.2696 229.374 13.5585 229.388 13.8476V25.9348H221.663V13.8476C221.663 13.2515 221.426 12.6798 221.004 12.2582C220.582 11.8367 220.009 11.5999 219.413 11.5999C218.816 11.5999 218.244 11.8367 217.822 12.2582C217.4 12.6798 217.163 13.2515 217.163 13.8476V28.0523C217.148 28.326 217.187 28.6 217.278 28.8585C217.369 29.1171 217.511 29.3551 217.694 29.559C217.878 29.7628 218.1 29.9285 218.347 30.0466C218.595 30.1646 218.863 30.2327 219.137 30.2469H232.793V32.1762C232.778 32.4495 232.818 32.723 232.909 32.981C233.001 33.239 233.142 33.4764 233.326 33.6798C233.509 33.8831 233.731 34.0484 233.978 34.1661C234.226 34.2839 234.494 34.3518 234.767 34.366H234.985C235.278 34.386 235.572 34.343 235.847 34.24C236.122 34.137 236.371 33.9764 236.579 33.7689C236.787 33.5615 236.948 33.312 237.051 33.0372C237.154 32.7625 237.197 32.4689 237.177 32.1762V28.1246C237.177 26.6776 236.313 25.9348 234.985 25.9348L234.941 25.9638ZM212.609 25.9348H211.455V13.8476C211.463 13.5676 211.415 13.2888 211.315 13.0272C211.215 12.7656 211.064 12.5263 210.871 12.3229C210.679 12.1196 210.448 11.9561 210.191 11.842C209.935 11.7279 209.659 11.6653 209.379 11.6578H209.205C208.913 11.6425 208.621 11.6887 208.349 11.7934C208.076 11.898 207.828 12.0588 207.621 12.2652C207.414 12.4717 207.254 12.7193 207.149 12.9919C207.044 13.2644 206.998 13.556 207.013 13.8476V25.9348H199.287V13.8476C199.287 13.2515 199.05 12.6798 198.628 12.2582C198.206 11.8367 197.634 11.5999 197.037 11.5999C196.441 11.5999 195.868 11.8367 195.446 12.2582C195.024 12.6798 194.787 13.2515 194.787 13.8476V28.0523C194.772 28.326 194.812 28.6 194.903 28.8585C194.994 29.1171 195.135 29.3551 195.319 29.559C195.502 29.7628 195.724 29.9285 195.972 30.0466C196.219 30.1646 196.488 30.2327 196.762 30.2469H210.417V32.1762C210.403 32.4495 210.443 32.723 210.534 32.981C210.626 33.239 210.767 33.4764 210.95 33.6798C211.134 33.8831 211.356 34.0484 211.603 34.1661C211.85 34.2839 212.118 34.3518 212.392 34.366H212.609C212.902 34.386 213.196 34.343 213.471 34.24C213.746 34.137 213.996 33.9764 214.204 33.7689C214.411 33.5615 214.572 33.312 214.675 33.0372C214.778 32.7625 214.821 32.4689 214.801 32.1762V28.1246C214.801 26.6776 213.937 25.9348 212.609 25.9348ZM187.752 11.8218H187.578C186.25 11.8218 185.386 12.4536 184.464 13.7801L177.207 24.0923V14.0116C177.207 13.4359 176.978 12.8839 176.57 12.4768C176.163 12.0698 175.61 11.8411 175.034 11.8411C174.457 11.8411 173.905 12.0698 173.497 12.4768C173.09 12.8839 172.861 13.4359 172.861 14.0116V27.7243C172.839 28.0555 172.888 28.3877 173.005 28.6985C173.122 29.0093 173.304 29.2915 173.539 29.5263C173.774 29.761 174.056 29.9429 174.368 30.0597C174.679 30.1765 175.011 30.2255 175.343 30.2035H175.575C176.96 30.2035 177.883 29.5137 178.747 28.2452L185.99 17.9329V28.0137C185.99 28.5791 186.215 29.1213 186.615 29.5212C187.015 29.921 187.558 30.1456 188.124 30.1456C188.69 30.1456 189.233 29.921 189.633 29.5212C190.033 29.1213 190.258 28.5791 190.258 28.0137V14.301C190.258 12.8009 189.336 11.8218 187.718 11.8218H187.752ZM166.033 11.8218H153.576C153.283 11.8018 152.989 11.8448 152.714 11.9478C152.439 12.0508 152.189 12.2114 151.981 12.4188C151.774 12.6263 151.613 12.8758 151.51 13.1505C151.407 13.4253 151.364 13.7189 151.384 14.0116V28.2404C151.368 28.805 151.577 29.3528 151.966 29.7634C152.354 30.1739 152.89 30.4138 153.455 30.4302H153.634C153.926 30.4454 154.217 30.3992 154.49 30.2946C154.763 30.1899 155.011 30.0292 155.218 29.8227C155.424 29.6162 155.585 29.3687 155.69 29.0961C155.795 28.8235 155.841 28.532 155.826 28.2404V16.1435H163.783V28.2404C163.771 28.5166 163.813 28.7925 163.908 29.0524C164.002 29.3123 164.147 29.5509 164.334 29.7548C164.521 29.9586 164.747 30.1236 164.998 30.2404C165.249 30.3571 165.52 30.4232 165.797 30.435H166.033C166.315 30.4486 166.597 30.4066 166.863 30.3115C167.128 30.2163 167.373 30.0698 167.581 29.8804C167.79 29.6909 167.96 29.4622 168.08 29.2073C168.201 28.9524 168.27 28.6763 168.283 28.3947C168.283 28.324 168.283 28.2548 168.283 28.1873V13.9537C168.29 13.6794 168.242 13.4066 168.143 13.1507C168.044 12.8949 167.895 12.661 167.705 12.4626C167.516 12.2642 167.289 12.105 167.038 11.9943C166.786 11.8835 166.516 11.8232 166.241 11.817H166.033V11.8218ZM133.827 26.2194C130.887 26.2194 128.81 24.0296 128.81 21.0343C128.761 19.7258 129.233 18.4511 130.124 17.4905C131.015 16.53 132.252 15.9622 133.562 15.912H133.827C136.768 15.912 138.844 18.1017 138.844 21.0392C138.844 23.9766 136.826 26.2242 133.827 26.2242V26.2194ZM133.827 11.706C132.614 11.6765 131.408 11.8859 130.276 12.3223C129.144 12.7586 128.11 13.4134 127.231 14.2492C126.353 15.0849 125.648 16.0853 125.157 17.1933C124.666 18.3012 124.397 19.4949 124.368 20.7063C124.368 20.835 124.368 20.9652 124.368 21.097C124.368 26.5136 128.463 30.488 133.827 30.488C136.298 30.5254 138.682 29.581 140.456 27.8624C142.23 26.1438 143.248 23.7919 143.286 21.3237C143.286 21.2305 143.286 21.1372 143.286 21.044C143.228 15.6274 139.134 11.7109 133.827 11.7109V11.706ZM115.662 25.9396H108.419C108.906 24.9493 109.274 23.9051 109.515 22.8286C109.811 21.3282 109.973 19.8044 109.998 18.2754L110.056 16.1435H115.706L115.662 25.9396ZM121.258 25.9396H120.104V14.0116C120.119 13.7382 120.079 13.4648 119.988 13.2068C119.896 12.9488 119.755 12.7114 119.571 12.508C119.388 12.3046 119.166 12.1394 118.919 12.0216C118.671 11.9039 118.403 11.836 118.13 11.8218H107.705C106.493 11.8218 105.686 12.6273 105.686 14.0116V16.9056C105.73 18.716 105.587 20.5262 105.262 22.3077C105.051 23.6084 104.557 24.8468 103.813 25.9348H103.33C101.882 25.9348 101.196 26.8561 101.196 28.1246V32.2148C101.182 32.4881 101.221 32.7616 101.313 33.0196C101.404 33.2776 101.546 33.515 101.729 33.7184C101.913 33.9217 102.134 34.087 102.382 34.2047C102.629 34.3225 102.897 34.3904 103.171 34.4046H103.388C103.681 34.4245 103.975 34.3816 104.25 34.2786C104.525 34.1756 104.775 34.015 104.983 33.8075C105.19 33.6001 105.351 33.3506 105.454 33.0758C105.557 32.8011 105.6 32.5075 105.58 32.2148V30.2469H119.018V32.2051C119.004 32.4785 119.043 32.7519 119.135 33.0099C119.226 33.2679 119.368 33.5054 119.551 33.7087C119.735 33.9121 119.956 34.0773 120.204 34.1951C120.451 34.3128 120.719 34.3807 120.993 34.3949H121.196C121.489 34.4149 121.783 34.3719 122.058 34.2689C122.333 34.166 122.582 34.0053 122.79 33.7979C122.998 33.5904 123.159 33.3409 123.262 33.0662C123.365 32.7915 123.408 32.4979 123.388 32.2051V28.1246C123.446 26.8561 122.755 25.9348 121.254 25.9348L121.258 25.9396ZM91.3168 26.2242C88.3762 26.2242 86.2999 24.0344 86.2999 21.0392C86.2503 19.7306 86.723 18.4559 87.6139 17.4954C88.5049 16.5348 89.7413 15.967 91.0512 15.9168H91.3168C94.2573 15.9168 96.3336 18.1066 96.3336 21.044C96.3336 23.9814 94.3732 26.229 91.3168 26.229V26.2242ZM91.3168 11.7109C90.1041 11.6814 88.8974 11.8908 87.7657 12.3271C86.634 12.7635 85.5995 13.4182 84.7211 14.254C83.8427 15.0898 83.1378 16.0902 82.6465 17.1981C82.1552 18.306 81.8871 19.4998 81.8577 20.7112C81.8577 20.8398 81.8577 20.97 81.8577 21.1019C81.8577 26.5184 85.9475 30.4687 91.3264 30.4687C93.7973 30.5061 96.1818 29.5617 97.9556 27.8431C99.7295 26.1246 100.747 23.7726 100.786 21.3044C100.786 21.2112 100.786 21.1179 100.786 21.0247C100.786 15.6081 96.6909 11.6916 91.3264 11.6916L91.3168 11.7109ZM73.0456 25.9059H65.8029C66.2894 24.9155 66.6573 23.8713 66.8989 22.7948C67.1947 21.2944 67.3563 19.7707 67.3818 18.2416L67.4397 16.1097H73.0891L73.0456 25.9059ZM78.6419 25.9059H77.4879V14.0116C77.5022 13.7382 77.4625 13.4648 77.371 13.2068C77.2795 12.9488 77.138 12.7114 76.9546 12.508C76.7712 12.3046 76.5495 12.1394 76.3021 12.0216C76.0548 11.9039 75.7866 11.836 75.513 11.8218H65.0882C63.8763 11.8218 63.0699 12.6273 63.0699 14.0116V16.9056C63.0699 18.9796 63.0699 20.5906 62.6643 22.3222C62.4542 23.6229 61.9596 24.8613 61.2158 25.9493H60.7329C59.2843 25.9493 58.5987 26.8705 58.5987 28.1391V32.2293C58.5849 32.524 58.6339 32.8183 58.7424 33.0927C58.851 33.3671 59.0167 33.6153 59.2285 33.821C59.4403 34.0266 59.6934 34.185 59.971 34.2856C60.2487 34.3862 60.5446 34.4268 60.8391 34.4046C61.1322 34.4245 61.4261 34.3816 61.7011 34.2786C61.9761 34.1756 62.2259 34.015 62.4336 33.8075C62.6413 33.6001 62.8021 33.3506 62.9052 33.0758C63.0083 32.8011 63.0513 32.5075 63.0313 32.2148V30.2469H76.4691V32.2051C76.4547 32.4785 76.4945 32.7519 76.586 33.0099C76.6775 33.2679 76.819 33.5054 77.0024 33.7087C77.1858 33.9121 77.4075 34.0773 77.6548 34.1951C77.9022 34.3128 78.1703 34.3807 78.4439 34.3949H78.6612C78.9543 34.4149 79.2482 34.3719 79.5232 34.2689C79.7982 34.166 80.048 34.0053 80.2557 33.7979C80.4634 33.5904 80.6242 33.3409 80.7272 33.0662C80.8303 32.7915 80.8734 32.4979 80.8534 32.2051V28.1246C80.8534 26.8561 80.1629 25.9348 78.6612 25.9348" fill="black"/>
</svg>
