<svg id="Layer_1" data-name="Layer 1" xmlns="http://www.w3.org/2000/svg" viewBox="0 0 305.8 64"><title>logo-dodo-wordmark-ru</title><path d="M291.3,35a18.41,18.41,0,0,1-4.1-.5l4-8.9,4,8.9a17.37,17.37,0,0,1-3.9.5m14.1,6.8-9.3-20.4c-1.1-2.2-2.5-3.2-4.6-3.2h-0.4c-2.2,0-3.6,1-4.7,3.2l-9.3,20.4c-0.9,2-.3,3.8,1.6,4.5a3.18,3.18,0,0,0,4.2-1.5l0.1-.2,2.1-4.4a19.91,19.91,0,0,0,6.4,1,17.75,17.75,0,0,0,6.1-1l2,4.4a3.18,3.18,0,0,0,4.1,1.8h0.1l0.2-.1a3.23,3.23,0,0,0,1.7-4.2,0.85,0.85,0,0,1-.3-0.3m-33.6-1.9H270V21.3a3.33,3.33,0,0,0-3.2-3.4h-0.3a3.25,3.25,0,0,0-3.4,3.1V40H251.2V21.3a3.51,3.51,0,0,0-7,0v22a3.17,3.17,0,0,0,3,3.4h21v3a3.17,3.17,0,0,0,3,3.4h0.3a3.22,3.22,0,0,0,3.4-2.9V43.5a3.12,3.12,0,0,0-2.7-3.4h-0.6m-34.4-.2h-1.8V21.3a3.33,3.33,0,0,0-3.2-3.4H232a3.31,3.31,0,0,0-3.3,3.2V40H216.8V21.3a3.51,3.51,0,0,0-7,0v22a3.17,3.17,0,0,0,3,3.4h21v3a3.17,3.17,0,0,0,3,3.4h0.3a3.22,3.22,0,0,0,3.5-2.8V43.4a3.12,3.12,0,0,0-2.7-3.4h-0.6M199,18.2h-0.3c-2,0-3.4,1-4.8,3L182.7,37.1V21.5a3.3,3.3,0,0,0-6.6,0V42.7a3.51,3.51,0,0,0,3.3,3.8h0.9c2.1,0,3.6-1.1,4.9-3l11.2-15.9V43.1a3.3,3.3,0,0,0,6.6,0h0V22a3.45,3.45,0,0,0-3.3-3.8H199m-33.4,0H146.4a3.22,3.22,0,0,0-3.4,2.9V43.5a3.33,3.33,0,0,0,3.2,3.4h0.3a3.25,3.25,0,0,0,3.4-3.1v-19h12.3V43.5a3.25,3.25,0,0,0,3.1,3.4h0.4a3.34,3.34,0,0,0,3.5-3.1V21.5a3.23,3.23,0,0,0-3.1-3.3h-0.5M115.9,40.4c-4.5,0-7.7-3.4-7.7-8a7.7,7.7,0,1,1,15.4,0h0a7.48,7.48,0,0,1-7.7,8m0-22.4a14.22,14.22,0,0,0-14.6,13.9h0v0.6A14.13,14.13,0,0,0,115.2,47h0.6a14.39,14.39,0,0,0,14.6-14.1h0V32.5a14.26,14.26,0,0,0-14-14.4l-0.5-.1M88,40H76.7a19.56,19.56,0,0,0,1.7-4.8,41.52,41.52,0,0,0,.7-7l0.1-3.3h8.7Zm8.6,0H94.8V21.5a3.17,3.17,0,0,0-3-3.4H75.6c-1.9,0-3.1,1.2-3.1,3.4V26a39.61,39.61,0,0,1-.6,8.4A14.28,14.28,0,0,1,69.7,40H68.9a3,3,0,0,0-3.3,2.8v6.9a3.17,3.17,0,0,0,3,3.4h0.3a3.22,3.22,0,0,0,3.4-2.9V46.8H93v3a3.17,3.17,0,0,0,3,3.4h0.3a3.22,3.22,0,0,0,3.4-2.9V43.6a3,3,0,0,0-2.6-3.4H96.4m-46.1.2c-4.5,0-7.7-3.4-7.7-8a7.7,7.7,0,1,1,15.4,0h0c0.1,4.6-2.9,8-7.7,8m0-22.4A14.22,14.22,0,0,0,35.7,31.9h0v0.6A14.07,14.07,0,0,0,49.6,47h0.7A14.39,14.39,0,0,0,64.9,32.9h0V32.5C65,24,58.7,18,50.3,18M22.2,40H11a21.91,21.91,0,0,0,1.7-4.9,41.52,41.52,0,0,0,.7-7l0.1-3.3h8.7V40Zm8.6,0H29V21.5a3.17,3.17,0,0,0-3-3.4H10c-1.9,0-3.1,1.2-3.1,3.4V26a39.61,39.61,0,0,1-.6,8.4A14.28,14.28,0,0,1,4.1,40H3.3A3,3,0,0,0,0,42.8v6.9a3.17,3.17,0,0,0,3,3.4H3.3a3.22,3.22,0,0,0,3.4-2.9V46.8H27.4v3a3.17,3.17,0,0,0,3,3.4h0.3a3.22,3.22,0,0,0,3.4-2.9V43.6a3.12,3.12,0,0,0-2.7-3.4,0.42,0.42,0,0,0-.6-0.2"/></svg>